<svg xmlns="http://www.w3.org/2000/svg" xmlns:xlink="http://www.w3.org/1999/xlink" viewBox="0 0 127.69 127.52"><defs><style>.cls-1{fill:#77acf1;}.cls-2{fill:#ff0;}.cls-3{fill:#f7931e;}.cls-4{fill:#fff;}.cls-5{fill:url(#radial-gradient);}.cls-6{fill:url(#radial-gradient-2);}.cls-7{fill:url(#radial-gradient-3);}.cls-8{fill:url(#radial-gradient-4);}.cls-9{fill:url(#radial-gradient-5);}.cls-10{fill:#ddd;}</style><radialGradient id="radial-gradient" cx="44.57" cy="62.41" r="4.3" gradientUnits="userSpaceOnUse"><stop offset="0" stop-color="#fff"/><stop offset="1" stop-color="#0071bc" stop-opacity="0.5"/></radialGradient><radialGradient id="radial-gradient-2" cx="23.83" cy="62.41" r="4.26" xlink:href="#radial-gradient"/><radialGradient id="radial-gradient-3" cx="24.86" cy="72.89" r="4.27" xlink:href="#radial-gradient"/><radialGradient id="radial-gradient-4" cx="34.46" cy="62.51" r="4.24" xlink:href="#radial-gradient"/><radialGradient id="radial-gradient-5" cx="36" cy="72.83" r="4.27" xlink:href="#radial-gradient"/></defs><g id="Layer_2" data-name="Layer 2"><g id="Layer_1-2" data-name="Layer 1"><path class="cls-1" d="M63.86,127.5C29.31,128.34,0,98.54,0,63.86,0,29.52,28.59-.06,63.94,0c34.87.06,63.81,29,63.75,64.06S98,128.31,63.86,127.5ZM7.6,65a53,53,0,0,0,2.83,16.71c3.83,11.32,11,20.16,20.52,27.2a53.32,53.32,0,0,0,28,10.53,55.74,55.74,0,0,0,26.7-4.18A58.32,58.32,0,0,0,108,98.11a47.69,47.69,0,0,0,9.52-17.8,48.94,48.94,0,0,0-.81-28.06c-2.8-8.83-8.63-14.52-17.92-16.3a28.32,28.32,0,0,0-18.55,2.32C72.86,42,68.72,48.41,66,55.87c-1.65,4.55-2.7,9.3-4.28,13.87C59.59,76,55.76,81.2,49.88,84.4c-8.06,4.39-16.57,4.07-25,1.12C18.5,83.27,14.3,78.37,11.06,72.65,9.68,70.22,8.74,67.54,7.6,65Zm35.77-8.14c2.42-.18,6.36-.36,10.29-.77a23.92,23.92,0,0,0,10.16-3c4.88-3,5.92-9.45,2.07-13.23C64,38,61.62,37.35,59.15,37c-1.28-.17-2.19-.54-2.41-2a4.06,4.06,0,0,0-.58-1.38c-3.26-5.52-8-9-14.42-9.57C35,23.45,29.52,26,25.94,31.94a2.08,2.08,0,0,1-2,1.26,7.61,7.61,0,0,0-1.16.12,13.72,13.72,0,0,0-8.15,3.58c-4.12,3.89-4.61,10.38-1.05,14.23,2.48,2.69,5.78,3.81,9.25,4.49C29.13,56.84,35.49,56.75,43.37,56.84Zm4.86,1-.47-.31c-1.84,1.22-3.75,2.37-5.52,3.69a3,3,0,0,0-1,3.81,3.68,3.68,0,0,0,3.62,2.2,3,3,0,0,0,2.87-2.73C48,62.32,48.07,60.08,48.23,57.86Zm-20.88-.29A25.7,25.7,0,0,0,21,61.81a3,3,0,0,0-.34,3.46,3.5,3.5,0,0,0,3.41,2,2.89,2.89,0,0,0,2.83-2A24.37,24.37,0,0,0,27.35,57.57Zm1.19,10.71-.44-.19c-2.2,1.31-4.58,2.35-6.28,4.37a2.79,2.79,0,0,0-.06,3.47,3.43,3.43,0,0,0,3.42,1.74,2.69,2.69,0,0,0,2.65-2.08C28.22,73.18,28.32,70.72,28.54,68.28Zm9.58-10.35-.51-.17a21.4,21.4,0,0,0-6.09,4.08,2.94,2.94,0,0,0-.3,3.48,3.56,3.56,0,0,0,3.44,1.92c1.31-.15,2.53-.74,2.75-2.11C37.78,62.75,37.9,60.33,38.12,57.93Zm1.45,10c-2.55,1.46-5,2.49-6.59,4.56-1.17,1.47-.42,3.73,1.36,4.73A3.25,3.25,0,0,0,38.91,76C39.88,73.48,39.51,70.89,39.57,68Z"/><path class="cls-2" d="M76.22,69.43A15.2,15.2,0,1,1,91.29,84.69,15.23,15.23,0,0,1,76.22,69.43Z"/><path class="cls-3" d="M78.29,82.07l5.25,3.77-8,5.69-.22-.15Z"/><path class="cls-3" d="M107.42,47.79c-1,3-1.91,6.07-2.89,9.16l-5.22-3.82,7.79-5.56Z"/><path class="cls-3" d="M78.29,56.9q-1.47-4.65-3-9.31l.21-.16,8,5.7Z"/><path class="cls-3" d="M99.3,85.85,104.52,82q1.45,4.56,2.9,9.13l-.29.25Z"/><path class="cls-3" d="M94.65,87.36c-1.05,3.14-2.06,6.16-3.06,9.17l-.32,0-3.09-9.21Z"/><path class="cls-3" d="M94.64,51.6H88.19l3.08-9.2.3,0C92.58,45.43,93.59,48.45,94.64,51.6Z"/><path class="cls-3" d="M117.05,78h-9.59c.65-2,1.27-4,1.94-6.08l7.77,5.74Z"/><path class="cls-3" d="M109.42,67.05l-2-6H117l.16.26Z"/><path class="cls-3" d="M73.4,72l2,6h-9.7l-.08-.26Z"/><path class="cls-3" d="M75.38,61l-2,6-7.8-5.76.08-.23Z"/><path class="cls-4" d="M7.6,65c1.14,2.56,2.08,5.24,3.46,7.67,3.24,5.72,7.44,10.62,13.83,12.87,8.42,3,16.93,3.27,25-1.12,5.88-3.2,9.71-8.37,11.87-14.66,1.58-4.57,2.63-9.32,4.28-13.87,2.69-7.46,6.83-13.89,14.24-17.6A28.32,28.32,0,0,1,98.82,36c9.29,1.78,15.12,7.47,17.92,16.3a48.94,48.94,0,0,1,.81,28.06A47.69,47.69,0,0,1,108,98.11a58.32,58.32,0,0,1-22.38,17.13A55.74,55.74,0,0,1,59,119.42a53.32,53.32,0,0,1-28-10.53c-9.52-7-16.69-15.88-20.52-27.2A53,53,0,0,1,7.6,65Zm68.62,4.45A15.2,15.2,0,1,0,91.41,54.27,15.2,15.2,0,0,0,76.22,69.43Zm2.07,12.64-3,9.31.22.15,8-5.69Zm29.13-34.28-.32-.22-7.79,5.56L104.53,57C105.51,53.86,106.47,50.82,107.42,47.79ZM78.29,56.9l5.25-3.77-8-5.7-.21.16Q76.82,52.26,78.29,56.9Zm21,28.95,7.83,5.57.29-.25Q106,86.6,104.52,82Zm-4.65,1.51H88.18l3.09,9.21.32,0C92.59,93.52,93.6,90.5,94.65,87.36Zm0-35.76c-1-3.15-2.06-6.17-3.07-9.18l-.3,0-3.08,9.2ZM117.05,78l.12-.34-7.77-5.74c-.67,2.11-1.29,4-1.94,6.08Zm-7.63-11,7.76-5.78L117,61h-9.56ZM73.4,72l-7.8,5.76.08.26h9.7Zm2-10.94H65.67l-.08.23L73.39,67Z"/><path class="cls-5" d="M48.23,57.86c-.16,2.22-.24,4.46-.53,6.66a3,3,0,0,1-2.87,2.73,3.68,3.68,0,0,1-3.62-2.2,3,3,0,0,1,1-3.81c1.77-1.32,3.68-2.47,5.52-3.69Z"/><path class="cls-6" d="M27.35,57.57a24.37,24.37,0,0,1-.48,7.64,2.89,2.89,0,0,1-2.83,2,3.5,3.5,0,0,1-3.41-2A3,3,0,0,1,21,61.81,25.7,25.7,0,0,1,27.35,57.57Z"/><path class="cls-7" d="M28.54,68.28c-.22,2.44-.32,4.9-.71,7.31a2.69,2.69,0,0,1-2.65,2.08,3.43,3.43,0,0,1-3.42-1.74,2.79,2.79,0,0,1,.06-3.47c1.7-2,4.08-3.06,6.28-4.37Z"/><path class="cls-8" d="M38.12,57.93c-.22,2.4-.34,4.82-.71,7.2-.22,1.37-1.44,2-2.75,2.11a3.56,3.56,0,0,1-3.44-1.92,2.94,2.94,0,0,1,.3-3.48,21.4,21.4,0,0,1,6.09-4.08Z"/><path class="cls-9" d="M39.57,68c-.06,2.92.31,5.51-.66,8a3.25,3.25,0,0,1-4.57,1.31c-1.78-1-2.53-3.26-1.36-4.73C34.62,70.46,37,69.43,39.57,68Z"/><path class="cls-4" d="M43.37,56.84c-7.88-.09-14.24,0-20.51-1.22-3.47-.68-6.77-1.8-9.25-4.49-3.56-3.85-3.07-10.34,1.05-14.23a13.72,13.72,0,0,1,8.15-3.58A7.61,7.61,0,0,1,24,33.2a2.08,2.08,0,0,0,2-1.26c3.58-6,9.05-8.49,15.8-7.85,6.38.6,11.16,4.05,14.42,9.57A4.06,4.06,0,0,1,56.74,35c.22,1.42,1.13,1.79,2.41,2,2.47.35,4.89,1,6.74,2.81C69.74,43.59,68.7,50.07,63.82,53a23.92,23.92,0,0,1-10.16,3C49.73,56.48,45.79,56.66,43.37,56.84ZM28.55,33.44a10.89,10.89,0,0,0,1.06.27A31.08,31.08,0,0,1,42.4,38.66,20.28,20.28,0,0,1,45.3,41c.28.27.18.92.25,1.4-.41,0-.83-.08-1.24-.14-.07,0-.13-.08-.19-.12a31.24,31.24,0,0,0-17.47-5.89c-2.84-.08-5.67.13-8.19,1.69a8,8,0,0,0-4.1,7.32c.06,2.85,1.77,4.61,4.14,5.66a23.35,23.35,0,0,0,6.17,1.91,116,116,0,0,0,24,.59A76.84,76.84,0,0,0,58,52.13a10.22,10.22,0,0,0,5.69-3A5,5,0,0,0,62.06,41a13.1,13.1,0,0,0-6.23-1.14c-.82.05-1.14-.22-1.29-1a14.1,14.1,0,0,0-1-3.32A15.05,15.05,0,0,0,47,28.9a13.68,13.68,0,0,0-17.15,2.73C29.43,32.14,29.07,32.73,28.55,33.44Z"/><path class="cls-10" d="M28.55,33.44c.52-.71.88-1.3,1.33-1.81A13.68,13.68,0,0,1,47,28.9a15.05,15.05,0,0,1,6.53,6.56,14.1,14.1,0,0,1,1,3.32c.15.83.47,1.1,1.29,1A13.1,13.1,0,0,1,62.06,41a5,5,0,0,1,1.61,8.2,10.22,10.22,0,0,1-5.69,3,76.84,76.84,0,0,1-9.31,1.26,116,116,0,0,1-24-.59,23.35,23.35,0,0,1-6.17-1.91c-2.37-1-4.08-2.81-4.14-5.66a8,8,0,0,1,4.1-7.32c2.52-1.56,5.35-1.77,8.19-1.69a31.24,31.24,0,0,1,17.47,5.89c.06,0,.12.11.19.12.41.06.83.09,1.24.14-.07-.48,0-1.13-.25-1.4a20.28,20.28,0,0,0-2.9-2.31,31.08,31.08,0,0,0-12.79-4.95A10.89,10.89,0,0,1,28.55,33.44Z"/></g></g></svg>