<svg xmlns="http://www.w3.org/2000/svg" xmlns:xlink="http://www.w3.org/1999/xlink" viewBox="0 0 361.54 215.64"><defs><style>.cls-1{font-size:51.92px;font-family:GoLong, Go Long;}.cls-1,.cls-2{fill:#77acf1;}.cls-3{fill:#ff0;}.cls-4{fill:#f7931e;}.cls-5{fill:#fff;}.cls-6{fill:url(#radial-gradient);}.cls-7{fill:url(#radial-gradient-2);}.cls-8{fill:url(#radial-gradient-3);}.cls-9{fill:url(#radial-gradient-4);}.cls-10{fill:url(#radial-gradient-5);}.cls-11{fill:#ddd;}</style><radialGradient id="radial-gradient" cx="161.49" cy="62.41" r="4.3" gradientUnits="userSpaceOnUse"><stop offset="0" stop-color="#fff"/><stop offset="1" stop-color="#0071bc" stop-opacity="0.5"/></radialGradient><radialGradient id="radial-gradient-2" cx="140.76" cy="62.41" r="4.26" xlink:href="#radial-gradient"/><radialGradient id="radial-gradient-3" cx="141.79" cy="72.89" r="4.27" xlink:href="#radial-gradient"/><radialGradient id="radial-gradient-4" cx="151.39" cy="62.51" r="4.24" xlink:href="#radial-gradient"/><radialGradient id="radial-gradient-5" cx="152.93" cy="72.83" r="4.27" xlink:href="#radial-gradient"/></defs><g id="Layer_2" data-name="Layer 2"><g id="Layer_1-2" data-name="Layer 1"><text class="cls-1" transform="translate(0 205.21)">CURRENT WEATHER</text><path class="cls-2" d="M180.79,127.5c-34.55.84-63.9-29-63.86-63.64C117,29.52,145.51-.06,180.87,0c34.87.06,63.8,29,63.74,64.06S214.89,128.31,180.79,127.5ZM124.53,65a52.72,52.72,0,0,0,2.83,16.71c3.83,11.32,11,20.16,20.51,27.2a53.35,53.35,0,0,0,28,10.53,55.76,55.76,0,0,0,26.7-4.18A58.32,58.32,0,0,0,225,98.11a47.81,47.81,0,0,0,9.51-17.8,48.85,48.85,0,0,0-.8-28.06C230.86,43.42,225,37.73,215.75,36a28.36,28.36,0,0,0-18.56,2.32C189.78,42,185.65,48.41,183,55.87c-1.64,4.55-2.7,9.3-4.27,13.87-2.16,6.29-6,11.46-11.87,14.66-8.06,4.39-16.58,4.07-25,1.12-6.38-2.25-10.58-7.15-13.82-12.87C126.61,70.22,125.67,67.54,124.53,65Zm35.76-8.14c2.42-.18,6.37-.36,10.29-.77a23.84,23.84,0,0,0,10.16-3c4.89-3,5.92-9.45,2.08-13.23C181,38,178.55,37.35,176.07,37c-1.27-.17-2.18-.54-2.4-2a3.9,3.9,0,0,0-.59-1.38c-3.26-5.52-8-9-14.42-9.57-6.75-.64-12.21,1.89-15.79,7.85a2.1,2.1,0,0,1-2,1.26,7.48,7.48,0,0,0-1.15.12,13.69,13.69,0,0,0-8.15,3.58c-4.12,3.89-4.62,10.38-1.05,14.23,2.48,2.69,5.78,3.81,9.25,4.49C146.06,56.84,152.42,56.75,160.29,56.84Zm4.87,1-.47-.31c-1.85,1.22-3.75,2.37-5.53,3.69a3,3,0,0,0-1,3.81,3.67,3.67,0,0,0,3.62,2.2,3,3,0,0,0,2.87-2.73C164.92,62.32,165,60.08,165.16,57.86Zm-20.89-.29a25.64,25.64,0,0,0-6.37,4.24,3,3,0,0,0-.34,3.46,3.48,3.48,0,0,0,3.41,2,2.89,2.89,0,0,0,2.83-2A24.38,24.38,0,0,0,144.27,57.57Zm1.2,10.71-.45-.19c-2.19,1.31-4.58,2.35-6.28,4.37a2.82,2.82,0,0,0-.06,3.47,3.45,3.45,0,0,0,3.42,1.74,2.69,2.69,0,0,0,2.66-2.08C145.15,73.18,145.25,70.72,145.47,68.28Zm9.58-10.35-.51-.17a21.26,21.26,0,0,0-6.09,4.08,2.91,2.91,0,0,0-.3,3.48,3.56,3.56,0,0,0,3.43,1.92c1.32-.15,2.53-.74,2.75-2.11C154.71,62.75,154.83,60.33,155.05,57.93Zm1.45,10c-2.55,1.46-4.95,2.49-6.59,4.56-1.17,1.47-.43,3.73,1.36,4.73A3.25,3.25,0,0,0,155.84,76C156.81,73.48,156.43,70.89,156.5,68Z"/><path class="cls-3" d="M193.14,69.43a15.2,15.2,0,1,1,15.08,15.26A15.24,15.24,0,0,1,193.14,69.43Z"/><path class="cls-4" d="M195.22,82.07l5.25,3.77-8,5.69-.21-.15Z"/><path class="cls-4" d="M224.35,47.79c-1,3-1.92,6.07-2.89,9.16l-5.22-3.82L224,47.57Z"/><path class="cls-4" d="M195.22,56.9q-1.49-4.65-2.95-9.31l.2-.16,8,5.7Z"/><path class="cls-4" d="M216.23,85.85,221.45,82q1.44,4.56,2.9,9.13l-.29.25Z"/><path class="cls-4" d="M211.58,87.36l-3.07,9.17-.31,0-3.1-9.21Z"/><path class="cls-4" d="M211.57,51.6h-6.45l3.07-9.2.31,0C209.51,45.43,210.51,48.45,211.57,51.6Z"/><path class="cls-4" d="M234,78h-9.59c.65-2,1.27-4,1.94-6.08l7.77,5.74Z"/><path class="cls-4" d="M226.34,67.05l-2-6h9.56l.17.26Z"/><path class="cls-4" d="M190.32,72l2,6h-9.69l-.08-.26Z"/><path class="cls-4" d="M192.3,61c-.65,2-1.28,3.86-2,6l-7.81-5.76.09-.23Z"/><path class="cls-5" d="M124.53,65c1.14,2.56,2.08,5.24,3.46,7.67,3.24,5.72,7.44,10.62,13.82,12.87,8.42,3,16.94,3.27,25-1.12,5.88-3.2,9.71-8.37,11.87-14.66,1.57-4.57,2.63-9.32,4.27-13.87,2.7-7.46,6.83-13.89,14.24-17.6A28.36,28.36,0,0,1,215.75,36c9.29,1.78,15.11,7.47,17.92,16.3a48.85,48.85,0,0,1,.8,28.06A47.81,47.81,0,0,1,225,98.11a58.32,58.32,0,0,1-22.38,17.13,55.76,55.76,0,0,1-26.7,4.18,53.35,53.35,0,0,1-28-10.53c-9.51-7-16.68-15.88-20.51-27.2A52.72,52.72,0,0,1,124.53,65Zm68.61,4.45a15.2,15.2,0,1,0,15.2-15.16A15.21,15.21,0,0,0,193.14,69.43Zm2.08,12.64-2.95,9.31.21.15,8-5.69Zm29.13-34.28-.32-.22-7.79,5.56L221.46,57C222.43,53.86,223.39,50.82,224.35,47.79ZM195.22,56.9l5.24-3.77-8-5.7-.2.16Q193.74,52.26,195.22,56.9Zm21,28.95,7.83,5.57.29-.25q-1.46-4.58-2.9-9.13Zm-4.65,1.51H205.1l3.1,9.21.31,0Zm0-35.76c-1.06-3.15-2.06-6.17-3.07-9.18l-.31,0-3.07,9.2ZM234,78l.12-.34-7.77-5.74C225.66,74,225,76,224.39,78Zm-7.64-11,7.77-5.78-.17-.26h-9.56Zm-36,4.91-7.79,5.76.08.26h9.69Zm2-10.94h-9.7l-.09.23L190.32,67C191,64.88,191.65,63,192.3,61Z"/><path class="cls-6" d="M165.16,57.86c-.17,2.22-.24,4.46-.53,6.66a3,3,0,0,1-2.87,2.73,3.67,3.67,0,0,1-3.62-2.2,3,3,0,0,1,1-3.81c1.78-1.32,3.68-2.47,5.53-3.69Z"/><path class="cls-7" d="M144.27,57.57a24.38,24.38,0,0,1-.47,7.64,2.89,2.89,0,0,1-2.83,2,3.48,3.48,0,0,1-3.41-2,3,3,0,0,1,.34-3.46A25.64,25.64,0,0,1,144.27,57.57Z"/><path class="cls-8" d="M145.47,68.28c-.22,2.44-.32,4.9-.71,7.31a2.69,2.69,0,0,1-2.66,2.08,3.45,3.45,0,0,1-3.42-1.74,2.82,2.82,0,0,1,.06-3.47c1.7-2,4.09-3.06,6.28-4.37Z"/><path class="cls-9" d="M155.05,57.93c-.22,2.4-.34,4.82-.72,7.2-.22,1.37-1.43,2-2.75,2.11a3.56,3.56,0,0,1-3.43-1.92,2.91,2.91,0,0,1,.3-3.48,21.26,21.26,0,0,1,6.09-4.08Z"/><path class="cls-10" d="M156.5,68c-.07,2.92.31,5.51-.66,8a3.25,3.25,0,0,1-4.57,1.31c-1.79-1-2.53-3.26-1.36-4.73C151.55,70.46,154,69.43,156.5,68Z"/><path class="cls-5" d="M160.29,56.84c-7.87-.09-14.23,0-20.5-1.22-3.47-.68-6.77-1.8-9.25-4.49-3.57-3.85-3.07-10.34,1.05-14.23a13.69,13.69,0,0,1,8.15-3.58,7.48,7.48,0,0,1,1.15-.12,2.1,2.1,0,0,0,2-1.26c3.58-6,9-8.49,15.79-7.85,6.39.6,11.16,4.05,14.42,9.57a3.9,3.9,0,0,1,.59,1.38c.22,1.42,1.13,1.79,2.4,2,2.48.35,4.89,1,6.75,2.81,3.84,3.78,2.81,10.26-2.08,13.23a23.84,23.84,0,0,1-10.16,3C166.66,56.48,162.71,56.66,160.29,56.84Zm-14.81-23.4a10.2,10.2,0,0,0,1.06.27,31.08,31.08,0,0,1,12.79,4.95,20.85,20.85,0,0,1,2.9,2.31c.27.27.17.92.25,1.4-.42,0-.83-.08-1.24-.14-.07,0-.13-.08-.2-.12a31.21,31.21,0,0,0-17.46-5.89c-2.84-.08-5.67.13-8.2,1.69a8,8,0,0,0-4.09,7.32c.06,2.85,1.77,4.61,4.14,5.66a23.35,23.35,0,0,0,6.17,1.91,116,116,0,0,0,24,.59,76.67,76.67,0,0,0,9.3-1.26,10.19,10.19,0,0,0,5.69-3A5,5,0,0,0,179,41a13,13,0,0,0-6.22-1.14c-.83.05-1.14-.22-1.3-1a13.21,13.21,0,0,0-1-3.32A15,15,0,0,0,164,28.9a13.68,13.68,0,0,0-17.15,2.73C146.35,32.14,146,32.73,145.48,33.44Z"/><path class="cls-11" d="M145.48,33.44c.52-.71.87-1.3,1.32-1.81A13.68,13.68,0,0,1,164,28.9a15,15,0,0,1,6.53,6.56,13.21,13.21,0,0,1,1,3.32c.16.83.47,1.1,1.3,1A13,13,0,0,1,179,41a5,5,0,0,1,1.61,8.2,10.19,10.19,0,0,1-5.69,3,76.67,76.67,0,0,1-9.3,1.26,116,116,0,0,1-24-.59,23.35,23.35,0,0,1-6.17-1.91c-2.37-1-4.08-2.81-4.14-5.66a8,8,0,0,1,4.09-7.32c2.53-1.56,5.36-1.77,8.2-1.69A31.21,31.21,0,0,1,161,42.11c.07,0,.13.11.2.12.41.06.82.09,1.24.14-.08-.48,0-1.13-.25-1.4a20.85,20.85,0,0,0-2.9-2.31,31.08,31.08,0,0,0-12.79-4.95A10.2,10.2,0,0,1,145.48,33.44Z"/></g></g></svg>